<?xml version="1.0" encoding="utf-8"?>
<!-- Generator: Adobe Illustrator 17.1.0, SVG Export Plug-In . SVG Version: 6.00 Build 0)  -->
<!DOCTYPE svg PUBLIC "-//W3C//DTD SVG 1.1//EN" "http://www.w3.org/Graphics/SVG/1.1/DTD/svg11.dtd">
<svg version="1.1" id="レイヤー_1" xmlns="http://www.w3.org/2000/svg" xmlns:xlink="http://www.w3.org/1999/xlink" x="0px"
	 y="0px" viewBox="0 316 640 159.1" enable-background="new 0 316 640 159.1" xml:space="preserve">
<g id="レイヤー_1_1_" xmlns:sketch="http://www.bohemiancoding.com/sketch/ns">
	<title>logo full</title>
	<description>Created with Sketch.</description>
	<path id="Shape" sketch:type="MSShapeGroup" fill="#FFFFFF" d="M0,316h159.1V475H0V316L0,316z"/>
	<g>
		<path id="Shape_1_" sketch:type="MSShapeGroup" fill="#010101" d="M59.9,320.4c20-5.2,42.2-2.3,59.9,8.9
			c22.2,13.3,37,38.5,37,64.4c1.1,26.3-12.6,52.2-34.8,66.6c-24.4,16.3-58.1,17-83.3,1.5c-25.1-15.2-39.9-45.9-36.3-75.2
			C5.6,355.6,29.6,328.2,59.9,320.4L59.9,320.4z"/>
		<path id="Shape_2_" sketch:type="MSShapeGroup" fill="#FFFFFF" d="M57,333.4c37.8-15.2,84.4,13,88.4,53.7
			c5.9,36.3-24.4,73.3-61.4,74.4c-35.1,3.3-69.2-26.3-70.3-61.8C11.1,371.2,30,342.6,57,333.4L57,333.4z"/>
	</g>
	<path fill="#010101" d="M49.9,367.4c4.4,7.1,8.9,14,13.7,20.7c5.6,0,11.1,0,16.3,0c12.2,0,24,0,36.3,0
		C94,380.8,71.8,374.1,49.9,367.4z"/>
	<path fill="#010101" d="M63.3,403c-4.4,7.1-9.2,13.7-13.7,20.7c22.2-7.1,44.4-13.3,66.2-20.7c-12.2,0-24,0-36.3,0
		C74.4,403,68.9,403,63.3,403z"/>
	<path id="socket.io_1_" sketch:type="MSShapeGroup" display="none" d="M221.6,421.1c3.3,1.9,7.8,2.9,13.3,2.9
		c11.5,0,17.8-5.6,17.8-13.3c0-6.3-3.7-10.4-11.5-13.3c-5.6-1.9-7.4-3.3-7.4-5.9s2.3-4.4,5.9-4.4c3.7,0,7.4,1.5,9.2,2.6l2.3-7.8
		c-3.3-1.5-7.4-2.9-12.2-2.9c-10,0-16.3,5.9-16.3,13.7c0,5.2,3.3,9.6,11.9,12.6c5.2,1.9,7.1,3.3,7.1,6.3c0,2.9-2.3,4.8-7.1,4.8
		c-4.1,0-8.5-1.5-11.1-2.9L221.6,421.1z M277.2,378.9c-13,0-22.2,8.9-22.2,23c0,13.7,9.2,22.2,21.9,22.2c11.1,0,22.2-7.1,22.2-23
		C298.7,388.1,290.1,378.9,277.2,378.9z M276.8,387.1c7.4,0,10.4,7.8,10.4,14.4c0,8.9-4.4,14.8-10.7,14.8c-6.7,0-10.7-6.3-10.7-14.8
		C266.1,394.4,269,387.1,276.8,387.1z M334.2,414c-2.3,0.8-4.8,1.9-8.5,1.9c-7.4,0-13.3-5.2-13.3-14c0-7.8,4.8-14,13.3-14
		c4.1,0,6.7,0.8,8.1,1.9l1.9-8.1c-2.3-1.5-6.3-2.6-10.4-2.6c-15.2,0-24,10-24,23c0,13.3,8.9,22.2,22.2,22.2c5.6,0,10-1.1,12.2-2.3
		L334.2,414z M351.1,360.4H340v62.9h11.1v-14.8l3.7-4.4l12.6,19.2h13.3l-18.1-25.5l15.9-17.8h-13.3l-10.4,14
		c-1.1,1.5-2.3,3.3-3.3,5.2l0,0v-38.9L351.1,360.4L351.1,360.4z M417.8,404.8c0-1.1,0.4-2.6,0.4-4.4c0-9.6-4.4-21.1-18.5-21.1
		c-13.7,0-21.1,11.1-21.1,23.4c0,13.3,8.1,21.9,22.2,21.9c6.3,0,11.5-1.1,15.2-2.6l-1.6-7.4c-3.3,1.1-7.1,1.9-11.9,1.9
		c-7.1,0-13-3.3-13.3-11.1h28.5L417.8,404.8L417.8,404.8z M388.5,397.1c0.4-4.4,3.3-10.7,10-10.7c7.4,0,8.9,6.7,8.9,10.7H388.5z
		 M424.8,370.4v9.6h-6.3v8.1h6.3v20.3c0,5.6,1.1,9.6,3.3,12.2c2.3,2.3,5.6,3.7,9.2,3.7c3.3,0,6.3-0.4,7.8-1.1v-8.5
		c-1.1,0.4-2.3,0.4-4.4,0.4c-4.1,0-5.6-2.6-5.6-8.1v-19.2h10.4v-8.1h-10.4v-11.9L424.8,370.4z M455.5,424.4c4.1,0,6.7-2.9,6.7-7.1
		c0-4.1-2.6-7.1-6.7-7.1s-6.7,2.9-6.7,7.1C448.9,421.1,451.4,424.4,455.5,424.4z M478.5,423.3V380h-11.1v43.3H478.5z M472.9,361.8
		c-3.7,0-6.3,2.6-6.3,5.9s2.3,5.9,5.9,5.9s6.3-2.6,6.3-5.9S476.6,361.8,472.9,361.8z M505.9,378.9c-13,0-22.2,8.9-22.2,23
		c0,13.7,9.2,22.2,21.9,22.2c11.1,0,22.2-7.1,22.2-23C527.4,388.1,518.8,378.9,505.9,378.9z M505.9,387.1c7.4,0,10.4,7.8,10.4,14.4
		c0,8.9-4.4,14.8-10.7,14.8c-6.7,0-10.7-6.3-10.7-14.8C494.8,394.4,498.1,387.1,505.9,387.1z"/>
	<path id="socket.io" sketch:type="MSShapeGroup" display="none" d="M221.6,421.1c3.3,1.9,7.8,2.9,13.3,2.9
		c11.5,0,17.8-5.6,17.8-13.3c0-6.3-3.7-10.4-11.5-13.3c-5.6-1.9-7.4-3.3-7.4-5.9s2.3-4.4,5.9-4.4c3.7,0,7.4,1.5,9.2,2.6l2.3-7.8
		c-3.3-1.5-7.4-2.9-12.2-2.9c-10,0-16.3,5.9-16.3,13.7c0,5.2,3.3,9.6,11.9,12.6c5.2,1.9,7.1,3.3,7.1,6.3c0,2.9-2.3,4.8-7.1,4.8
		c-4.1,0-8.5-1.5-11.1-2.9L221.6,421.1z M277.2,378.9c-13,0-22.2,8.9-22.2,23c0,13.7,9.2,22.2,21.9,22.2c11.1,0,22.2-7.1,22.2-23
		C298.7,388.1,290.1,378.9,277.2,378.9z M276.8,387.1c7.4,0,10.4,7.8,10.4,14.4c0,8.9-4.4,14.8-10.7,14.8c-6.7,0-10.7-6.3-10.7-14.8
		C266.1,394.4,269,387.1,276.8,387.1z M334.2,414c-2.3,0.8-4.8,1.9-8.5,1.9c-7.4,0-13.3-5.2-13.3-14c0-7.8,4.8-14,13.3-14
		c4.1,0,6.7,0.8,8.1,1.9l1.9-8.1c-2.3-1.5-6.3-2.6-10.4-2.6c-15.2,0-24,10-24,23c0,13.3,8.9,22.2,22.2,22.2c5.6,0,10-1.1,12.2-2.3
		L334.2,414z M351.1,360.4H340v62.9h11.1v-14.8l3.7-4.4l12.6,19.2h13.3l-18.1-25.5l15.9-17.8h-13.3l-10.4,14
		c-1.1,1.5-2.3,3.3-3.3,5.2l0,0v-38.9L351.1,360.4L351.1,360.4z M417.8,404.8c0-1.1,0.4-2.6,0.4-4.4c0-9.6-4.4-21.1-18.5-21.1
		c-13.7,0-21.1,11.1-21.1,23.4c0,13.3,8.1,21.9,22.2,21.9c6.3,0,11.5-1.1,15.2-2.6l-1.6-7.4c-3.3,1.1-7.1,1.9-11.9,1.9
		c-7.1,0-13-3.3-13.3-11.1h28.5L417.8,404.8L417.8,404.8z M388.5,397.1c0.4-4.4,3.3-10.7,10-10.7c7.4,0,8.9,6.7,8.9,10.7H388.5z
		 M424.8,370.4v9.6h-6.3v8.1h6.3v20.3c0,5.6,1.1,9.6,3.3,12.2c2.3,2.3,5.6,3.7,9.2,3.7c3.3,0,6.3-0.4,7.8-1.1v-8.5
		c-1.1,0.4-2.3,0.4-4.4,0.4c-4.1,0-5.6-2.6-5.6-8.1v-19.2h10.4v-8.1h-10.4v-11.9L424.8,370.4z M455.5,424.4c4.1,0,6.7-2.9,6.7-7.1
		c0-4.1-2.6-7.1-6.7-7.1s-6.7,2.9-6.7,7.1C448.9,421.1,451.4,424.4,455.5,424.4z M478.5,423.3V380h-11.1v43.3H478.5z M472.9,361.8
		c-3.7,0-6.3,2.6-6.3,5.9s2.3,5.9,5.9,5.9s6.3-2.6,6.3-5.9S476.6,361.8,472.9,361.8z M505.9,378.9c-13,0-22.2,8.9-22.2,23
		c0,13.7,9.2,22.2,21.9,22.2c11.1,0,22.2-7.1,22.2-23C527.4,388.1,518.8,378.9,505.9,378.9z M505.9,387.1c7.4,0,10.4,7.8,10.4,14.4
		c0,8.9-4.4,14.8-10.7,14.8c-6.7,0-10.7-6.3-10.7-14.8C494.8,394.4,498.1,387.1,505.9,387.1z"/>
</g>
<g id="レイヤー_2">
	<g enable-background="new    ">
		<path d="M222.6,424.3H214v-47.7h-15.5v-7.8h39.7v7.8h-15.5V424.3z"/>
		<path d="M270.3,424.3l-1.7-5.8h-0.3c-1.9,2.6-3.9,4.3-5.8,5.2c-2,0.9-4.5,1.4-7.5,1.4c-3.9,0-7-1.1-9.2-3.3
			c-2.2-2.2-3.3-5.4-3.3-9.4c0-4.3,1.5-7.6,4.6-9.8c3.1-2.2,7.7-3.4,14-3.6l6.9-0.2v-2.2c0-2.7-0.6-4.7-1.8-6s-3-2-5.5-2
			c-2,0-4,0.3-5.9,0.9c-1.9,0.6-3.7,1.4-5.4,2.2l-2.7-6.4c2.2-1.2,4.5-2.1,7.1-2.7c2.6-0.6,5-0.9,7.3-0.9c5.1,0,8.9,1.2,11.5,3.5
			c2.6,2.3,3.9,6,3.9,11v28.3H270.3z M257.7,418.2c3.1,0,5.6-0.9,7.4-2.7c1.9-1.8,2.8-4.3,2.8-7.6v-3.6l-5.1,0.2
			c-4,0.2-6.9,0.9-8.7,2.1c-1.8,1.3-2.7,3.2-2.7,5.7c0,1.9,0.5,3.3,1.6,4.3C254,417.7,255.6,418.2,257.7,418.2z"/>
		<path d="M303.2,417.8c2.1,0,4.1-0.3,6.2-1v6.7c-0.9,0.4-2.1,0.8-3.6,1.1c-1.5,0.3-3,0.4-4.6,0.4c-8,0-12.1-4.5-12.1-13.4v-22.6
			h-5.5v-3.9l5.9-3.3l2.9-8.9h5.2v9.3H309v6.8h-11.4v22.5c0,2.2,0.5,3.7,1.5,4.8C300.1,417.3,301.5,417.8,303.2,417.8z"/>
		<path d="M342.4,424.3l-1.7-5.8h-0.3c-1.9,2.6-3.9,4.3-5.8,5.2s-4.5,1.4-7.5,1.4c-3.9,0-7-1.1-9.2-3.3c-2.2-2.2-3.3-5.4-3.3-9.4
			c0-4.3,1.5-7.6,4.6-9.8c3.1-2.2,7.7-3.4,14-3.6l6.9-0.2v-2.2c0-2.7-0.6-4.7-1.8-6c-1.2-1.3-3-2-5.5-2c-2,0-4,0.3-5.9,0.9
			c-1.9,0.6-3.7,1.4-5.4,2.2l-2.7-6.4c2.2-1.2,4.5-2.1,7.1-2.7c2.6-0.6,5-0.9,7.3-0.9c5.1,0,8.9,1.2,11.5,3.5s3.9,6,3.9,11v28.3
			H342.4z M329.7,418.2c3.1,0,5.6-0.9,7.4-2.7c1.9-1.8,2.8-4.3,2.8-7.6v-3.6l-5.1,0.2c-4,0.2-6.9,0.9-8.7,2.1
			c-1.8,1.3-2.7,3.2-2.7,5.7c0,1.9,0.5,3.3,1.6,4.3C326,417.7,327.6,418.2,329.7,418.2z"/>
		<path d="M394,424.3h-8.5v-25.9c0-3.2-0.6-5.6-1.7-7.2s-3-2.4-5.4-2.4c-3.3,0-5.7,1.1-7.2,3.4c-1.5,2.2-2.3,6-2.3,11.2v20.9h-8.5
			v-42h6.6l1.2,5.5h0.4c1.1-2,2.7-3.5,4.8-4.6c2.1-1.1,4.4-1.6,7-1.6c6.1,0,10.2,2.2,12.2,6.6h0.6c1.2-2.1,2.8-3.7,5-4.9
			c2.1-1.2,4.6-1.7,7.4-1.7c4.8,0,8.2,1.3,10.4,3.8c2.2,2.5,3.3,6.4,3.3,11.6v27.4h-8.5v-25.9c0-3.2-0.6-5.6-1.8-7.2
			c-1.2-1.6-3-2.4-5.4-2.4c-3.3,0-5.7,1.1-7.2,3.2c-1.5,2.2-2.3,5.5-2.3,10V424.3z"/>
		<path d="M430.5,371.2c0-1.6,0.4-2.8,1.2-3.7c0.8-0.9,2-1.3,3.6-1.3c1.5,0,2.7,0.4,3.5,1.3c0.8,0.9,1.2,2.1,1.2,3.7
			c0,1.5-0.4,2.7-1.2,3.6c-0.8,0.9-2,1.3-3.5,1.3c-1.5,0-2.7-0.4-3.6-1.3C431,373.9,430.5,372.7,430.5,371.2z M439.5,424.3H431v-42
			h8.5V424.3z"/>
		<path d="M448.2,407.2v-7.6h18.6v7.6H448.2z"/>
		<path d="M491.6,425c-6,0-10.6-1.9-13.8-5.6c-3.1-3.7-4.7-9-4.7-16c0-7.1,1.6-12.5,4.9-16.3c3.3-3.8,8-5.7,14.3-5.7
			c4.2,0,8,0.8,11.4,2.5l-2.6,7.2c-3.6-1.5-6.6-2.2-8.9-2.2c-6.9,0-10.4,4.8-10.4,14.5c0,4.7,0.9,8.2,2.6,10.6s4.2,3.5,7.6,3.5
			c3.8,0,7.4-1,10.7-3v7.8c-1.5,0.9-3.1,1.6-4.9,2S494.1,425,491.6,425z"/>
		<path d="M547.6,403.2c0,6.9-1.7,12.2-5,16c-3.3,3.8-8,5.8-14,5.8c-3.7,0-7-0.9-9.9-2.7c-2.9-1.8-5.1-4.3-6.6-7.6
			c-1.5-3.3-2.3-7.2-2.3-11.5c0-6.8,1.7-12.1,5-15.9c3.3-3.8,8-5.7,14.1-5.7c5.8,0,10.4,2,13.7,5.9
			C545.9,391.3,547.6,396.6,547.6,403.2z M518.5,403.2c0,9.7,3.4,14.5,10.2,14.5c6.7,0,10.1-4.8,10.1-14.5c0-9.6-3.4-14.4-10.2-14.4
			c-3.6,0-6.1,1.2-7.8,3.7C519.3,395,518.5,398.6,518.5,403.2z"/>
		<path d="M570.8,425c-5,0-8.9-1.9-11.7-5.7s-4.2-9.1-4.2-16c0-6.9,1.4-12.2,4.2-16.1c2.8-3.8,6.8-5.7,11.8-5.7c5.3,0,9.3,2,12,6.1
			h0.4c-0.4-3-0.6-5.4-0.6-7.1v-15.3h8.5v59h-6.6l-1.5-5.5h-0.4C580.1,423,576.1,425,570.8,425z M573.1,417.8c3.5,0,6-1,7.6-3.1
			c1.6-2.1,2.4-5.4,2.5-10v-1.3c0-5.3-0.8-9-2.5-11.3c-1.6-2.2-4.2-3.3-7.7-3.3c-3,0-5.3,1.3-6.9,3.8c-1.6,2.5-2.4,6.2-2.4,10.9
			c0,4.7,0.8,8.2,2.3,10.6C567.6,416.6,570,417.8,573.1,417.8z"/>
		<path d="M620.9,425c-6.2,0-11.1-1.9-14.6-5.7c-3.5-3.8-5.3-9-5.3-15.7c0-6.9,1.6-12.2,4.9-16.2c3.3-3.9,7.7-5.9,13.4-5.9
			c5.3,0,9.4,1.7,12.5,5c3.1,3.4,4.6,8,4.6,13.9v4.8h-26.6c0.1,4.1,1.2,7.2,3.1,9.4c2,2.2,4.8,3.3,8.3,3.3c2.4,0,4.6-0.2,6.6-0.7
			c2-0.5,4.2-1.2,6.6-2.3v7.2c-2.1,1-4.2,1.8-6.3,2.2C626.1,424.8,623.6,425,620.9,425z M619.4,388.3c-2.7,0-4.9,0.9-6.5,2.7
			c-1.6,1.8-2.6,4.4-2.9,7.9h18.1c0-3.5-0.8-6.1-2.4-7.9C624.2,389.2,622.1,388.3,619.4,388.3z"/>
	</g>
</g>
</svg>
