<?xml version="1.0" encoding="utf-8"?>
<!-- Generator: Adobe Illustrator 17.1.0, SVG Export Plug-In . SVG Version: 6.00 Build 0)  -->
<!DOCTYPE svg PUBLIC "-//W3C//DTD SVG 1.1//EN" "http://www.w3.org/Graphics/SVG/1.1/DTD/svg11.dtd">
<svg version="1.1" id="レイヤー_1" xmlns="http://www.w3.org/2000/svg" xmlns:xlink="http://www.w3.org/1999/xlink" x="0px"
	 y="0px" viewBox="0 155.5 679.5 168.9" enable-background="new 0 155.5 679.5 168.9" xml:space="preserve">
<g id="レイヤー_1_1_" xmlns:sketch="http://www.bohemiancoding.com/sketch/ns">
	<title>logo full</title>
	<description>Created with Sketch.</description>
	<path id="Shape" sketch:type="MSShapeGroup" fill="#FFFFFF" d="M0,155.5h168.9v168.9H0V155.5L0,155.5z"/>
	<g>
		<path id="Shape_1_" sketch:type="MSShapeGroup" fill="#010101" d="M63.6,160.2c21.2-5.5,44.8-2.4,63.6,9.4
			c23.6,14.1,39.3,40.9,39.3,68.4c1.2,27.9-13.4,55.4-36.9,70.7c-25.9,17.3-61.7,18.1-88.4,1.6c-26.7-16.1-42.4-48.7-38.5-79.8
			C5.9,197.6,31.4,168.5,63.6,160.2L63.6,160.2z"/>
		<path id="Shape_2_" sketch:type="MSShapeGroup" fill="#FFFFFF" d="M60.5,174c40.1-16.1,89.6,13.8,93.9,57
			c6.3,38.5-25.9,77.8-65.2,79c-37.3,3.5-73.5-27.9-74.6-65.6C11.8,214.1,31.8,183.8,60.5,174L60.5,174z"/>
	</g>
	<path fill="#010101" d="M53,210.1c4.7,7.5,9.4,14.9,14.5,22c5.9,0,11.8,0,17.3,0c13,0,25.5,0,38.5,0
		C99.8,224.3,76.2,217.2,53,210.1z"/>
	<path fill="#010101" d="M67.2,247.9c-4.7,7.5-9.8,14.5-14.5,22c23.6-7.5,47.1-14.1,70.3-22c-13,0-25.5,0-38.5,0
		C79,247.9,73.1,247.9,67.2,247.9z"/>
	<path id="socket.io_1_" sketch:type="MSShapeGroup" display="none" d="M235.3,267.1c3.5,2,8.3,3.1,14.1,3.1
		c12.2,0,18.9-5.9,18.9-14.1c0-6.7-3.9-11-12.2-14.1c-5.9-2-7.9-3.5-7.9-6.3s2.4-4.7,6.3-4.7c3.9,0,7.9,1.6,9.8,2.8l2.4-8.3
		c-3.5-1.6-7.9-3.1-13-3.1c-10.6,0-17.3,6.3-17.3,14.5c0,5.5,3.5,10.2,12.6,13.4c5.5,2,7.5,3.5,7.5,6.7c0,3.1-2.4,5.1-7.5,5.1
		c-4.3,0-9-1.6-11.8-3.1L235.3,267.1z M294.3,222.3c-13.8,0-23.6,9.4-23.6,24.4c0,14.5,9.8,23.6,23.2,23.6
		c11.8,0,23.6-7.5,23.6-24.4C317.1,232.1,308,222.3,294.3,222.3z M293.9,231c7.9,0,11,8.3,11,15.3c0,9.4-4.7,15.7-11.4,15.7
		c-7.1,0-11.4-6.7-11.4-15.7C282.5,238.8,285.6,231,293.9,231z M354.8,259.6c-2.4,0.8-5.1,2-9,2c-7.9,0-14.1-5.5-14.1-14.9
		c0-8.3,5.1-14.9,14.1-14.9c4.3,0,7.1,0.8,8.6,2l2-8.6c-2.4-1.6-6.7-2.8-11-2.8c-16.1,0-25.5,10.6-25.5,24.4
		c0,14.1,9.4,23.6,23.6,23.6c5.9,0,10.6-1.2,13-2.4L354.8,259.6z M372.8,202.7h-11.8v66.8h11.8v-15.7l3.9-4.7l13.4,20.4h14.1
		L385,242.4l16.9-18.9h-14.1l-11,14.9c-1.2,1.6-2.4,3.5-3.5,5.5l0,0v-41.3H372.8z M443.6,249.8c0-1.2,0.4-2.8,0.4-4.7
		c0-10.2-4.7-22.4-19.6-22.4c-14.5,0-22.4,11.8-22.4,24.8c0,14.1,8.6,23.2,23.6,23.2c6.7,0,12.2-1.2,16.1-2.8L440,260
		c-3.5,1.2-7.5,2-12.6,2c-7.5,0-13.8-3.5-14.1-11.8h30.3V249.8z M412.5,241.6c0.4-4.7,3.5-11.4,10.6-11.4c7.9,0,9.4,7.1,9.4,11.4
		H412.5z M451,213.3v10.2h-6.7v8.6h6.7v21.6c0,5.9,1.2,10.2,3.5,13c2.4,2.4,5.9,3.9,9.8,3.9c3.5,0,6.7-0.4,8.3-1.2v-9
		c-1.2,0.4-2.4,0.4-4.7,0.4c-4.3,0-5.9-2.8-5.9-8.6v-20.4h11v-8.6h-11v-12.6L451,213.3z M483.6,270.6c4.3,0,7.1-3.1,7.1-7.5
		c0-4.3-2.8-7.5-7.1-7.5s-7.1,3.1-7.1,7.5C476.6,267.1,479.3,270.6,483.6,270.6z M508,269.5v-46h-11.8v46H508z M502.1,204.2
		c-3.9,0-6.7,2.8-6.7,6.3c0,3.5,2.4,6.3,6.3,6.3c3.9,0,6.7-2.8,6.7-6.3C508.4,207,506,204.2,502.1,204.2z M537.1,222.3
		c-13.8,0-23.6,9.4-23.6,24.4c0,14.5,9.8,23.6,23.2,23.6c11.8,0,23.6-7.5,23.6-24.4C559.9,232.1,550.8,222.3,537.1,222.3z
		 M537.1,231c7.9,0,11,8.3,11,15.3c0,9.4-4.7,15.7-11.4,15.7c-7.1,0-11.4-6.7-11.4-15.7C525.3,238.8,528.8,231,537.1,231z"/>
	<path id="socket.io" sketch:type="MSShapeGroup" display="none" d="M235.3,267.1c3.5,2,8.3,3.1,14.1,3.1c12.2,0,18.9-5.9,18.9-14.1
		c0-6.7-3.9-11-12.2-14.1c-5.9-2-7.9-3.5-7.9-6.3s2.4-4.7,6.3-4.7c3.9,0,7.9,1.6,9.8,2.8l2.4-8.3c-3.5-1.6-7.9-3.1-13-3.1
		c-10.6,0-17.3,6.3-17.3,14.5c0,5.5,3.5,10.2,12.6,13.4c5.5,2,7.5,3.5,7.5,6.7c0,3.1-2.4,5.1-7.5,5.1c-4.3,0-9-1.6-11.8-3.1
		L235.3,267.1z M294.3,222.3c-13.8,0-23.6,9.4-23.6,24.4c0,14.5,9.8,23.6,23.2,23.6c11.8,0,23.6-7.5,23.6-24.4
		C317.1,232.1,308,222.3,294.3,222.3z M293.9,231c7.9,0,11,8.3,11,15.3c0,9.4-4.7,15.7-11.4,15.7c-7.1,0-11.4-6.7-11.4-15.7
		C282.5,238.8,285.6,231,293.9,231z M354.8,259.6c-2.4,0.8-5.1,2-9,2c-7.9,0-14.1-5.5-14.1-14.9c0-8.3,5.1-14.9,14.1-14.9
		c4.3,0,7.1,0.8,8.6,2l2-8.6c-2.4-1.6-6.7-2.8-11-2.8c-16.1,0-25.5,10.6-25.5,24.4c0,14.1,9.4,23.6,23.6,23.6c5.9,0,10.6-1.2,13-2.4
		L354.8,259.6z M372.8,202.7h-11.8v66.8h11.8v-15.7l3.9-4.7l13.4,20.4h14.1L385,242.4l16.9-18.9h-14.1l-11,14.9
		c-1.2,1.6-2.4,3.5-3.5,5.5l0,0v-41.3H372.8z M443.6,249.8c0-1.2,0.4-2.8,0.4-4.7c0-10.2-4.7-22.4-19.6-22.4
		c-14.5,0-22.4,11.8-22.4,24.8c0,14.1,8.6,23.2,23.6,23.2c6.7,0,12.2-1.2,16.1-2.8L440,260c-3.5,1.2-7.5,2-12.6,2
		c-7.5,0-13.8-3.5-14.1-11.8h30.3V249.8z M412.5,241.6c0.4-4.7,3.5-11.4,10.6-11.4c7.9,0,9.4,7.1,9.4,11.4H412.5z M451,213.3v10.2
		h-6.7v8.6h6.7v21.6c0,5.9,1.2,10.2,3.5,13c2.4,2.4,5.9,3.9,9.8,3.9c3.5,0,6.7-0.4,8.3-1.2v-9c-1.2,0.4-2.4,0.4-4.7,0.4
		c-4.3,0-5.9-2.8-5.9-8.6v-20.4h11v-8.6h-11v-12.6L451,213.3z M483.6,270.6c4.3,0,7.1-3.1,7.1-7.5c0-4.3-2.8-7.5-7.1-7.5
		s-7.1,3.1-7.1,7.5C476.6,267.1,479.3,270.6,483.6,270.6z M508,269.5v-46h-11.8v46H508z M502.1,204.2c-3.9,0-6.7,2.8-6.7,6.3
		c0,3.5,2.4,6.3,6.3,6.3c3.9,0,6.7-2.8,6.7-6.3C508.4,207,506,204.2,502.1,204.2z M537.1,222.3c-13.8,0-23.6,9.4-23.6,24.4
		c0,14.5,9.8,23.6,23.2,23.6c11.8,0,23.6-7.5,23.6-24.4C559.9,232.1,550.8,222.3,537.1,222.3z M537.1,231c7.9,0,11,8.3,11,15.3
		c0,9.4-4.7,15.7-11.4,15.7c-7.1,0-11.4-6.7-11.4-15.7C525.3,238.8,528.8,231,537.1,231z"/>
</g>
<g id="レイヤー_2">
	<text transform="matrix(0.9524 0 0 1 209.5618 270.5058)" font-family="'OpenSans-Semibold'" font-size="82.5046">Tatami-code</text>
</g>
</svg>
